<svg version="1.1" xmlns="http://www.w3.org/2000/svg" xmlns:xlink="http://www.w3.org/1999/xlink"
  width="128px" height="128px" viewBox="0,0,255.99579,255.99579">
  <g transform="translate(9.99984,9.99984) scale(0.92188,0.92188)">
    <g fill="#80bec1" fill-rule="nonzero" stroke="none" stroke-width="1" stroke-linecap="butt"
      stroke-linejoin="miter" stroke-miterlimit="10" stroke-dasharray="" stroke-dashoffset="0"
      font-family="none" font-weight="none" font-size="none" text-anchor="none"
      style="mix-blend-mode: normal">
      <path
        d="M58.57531,266.84307c-38.34104,0 -69.42259,-31.08155 -69.42259,-69.42259v-138.84517c0,-38.34104 31.08155,-69.42259 69.42259,-69.42259h138.84517c38.34104,0 69.42259,31.08155 69.42259,69.42259v138.84517c0,38.34104 -31.08155,69.42259 -69.42259,69.42259z"
        id="shape"></path>
    </g>
    <g fill="none" fill-rule="nonzero" stroke="none" stroke-width="1" stroke-linecap="butt"
      stroke-linejoin="miter" stroke-miterlimit="10" stroke-dasharray="" stroke-dashoffset="0"
      font-family="none" font-weight="none" font-size="none" text-anchor="none"
      style="mix-blend-mode: normal">
      <g transform="scale(2,2)">
        <path
          d="M4,89.5c0,-33.4 27.4,-60.5 60.9,-60c33,0.5 59.1,28 59.1,60.9v2.7c0,5.3 -4.4,9.6 -9.7,9.5l-110.1,-2.1z"
          fill="#f6e6e6"></path>
        <path d="M14,89.5c0,-27.6 22.4,-50 50,-50c27.6,0 50,22.4 50,50v11.2h-100z" fill="#f7c9c6"></path>
        <path d="M27,90.1c0,-20.4 16.6,-37 37,-37c20.4,0 37,16.6 37,37v10.4l-74,0.2z" fill="#e76855"></path>
        <path
          d="M73.9,106c-0.1,0 -0.1,0 -0.2,0c-3.7,0 -7.2,-1.3 -10,-3.5c-2.8,2.1 -6.2,3.3 -9.8,3.3c-3.7,0 -7.1,-1.2 -9.9,-3.3c-2.8,2.2 -6.2,3.3 -9.9,3.3c-3.7,0 -7.1,-1.2 -9.9,-3.3c-2.8,2.2 -6.2,3.3 -9.9,3.3c-4.7,0 -9.2,-2 -12.2,-5.5c-1,-1.3 -0.8,-3.2 0.5,-4.3c1.3,-1.1 3.2,-0.9 4.2,0.3c1.8,2.2 4.6,3.4 7.6,3.4c3,0 5.8,-1.2 7.6,-3.4c0.6,-0.7 1.4,-1.1 2.3,-1.1c0.9,0 1.7,0.4 2.3,1.1c1.8,2.2 4.6,3.4 7.6,3.4c3,0 5.8,-1.2 7.6,-3.4c0.6,-0.7 1.4,-1.1 2.3,-1.1c0.9,0 1.7,0.4 2.3,1.1c1.8,2.2 4.6,3.4 7.6,3.4c3,0 5.8,-1.2 7.6,-3.4c0.6,-0.7 1.4,-1.1 2.3,-1.1v0c0.9,0 1.7,0.4 2.3,1.1l0.2,0.2c1.8,2.1 4.6,3.4 7.5,3.4c2.9,0 5.7,-1.2 7.6,-3.3l0.4,-0.4c0.6,-0.7 1.4,-1 2.3,-1c0.9,0 1.7,0.4 2.3,1.1c1.8,2.2 4.6,3.4 7.6,3.4c1.7,0 3,1.3 3,3c0,1.7 -1.3,3 -3,3c-3.6,0 -7.1,-1.2 -9.8,-3.3c-3.1,2.3 -6.7,3.6 -10.4,3.6zM88.8,115.3h-10.9c-1.7,0 -3,-1.3 -3,-3c0,-1.7 1.3,-3 3,-3h10.9c1.7,0 3,1.3 3,3c0,1.7 -1.3,3 -3,3zM90.8,124.3c-0.8,0 -1.6,-0.3 -2.1,-0.9c-0.5,-0.6 -0.9,-1.3 -0.9,-2.1c0,-0.8 0.3,-1.6 0.9,-2.1c1.1,-1.1 3.1,-1.1 4.2,0c0.6,0.6 0.9,1.3 0.9,2.1c0,0.8 -0.3,1.6 -0.9,2.1c-0.5,0.6 -1.3,0.9 -2.1,0.9zM123.5,101.3c-1.7,0 -3,-1.3 -3,-3c0,-1.7 1.3,-3 3,-3v0c1.7,0 3,1.3 3,3c0,1.7 -1.3,3 -3,3z"
          fill="#67a1af"></path>
        <path
          d="M93.8,105.8c-4.7,0 -9.2,-2 -12.2,-5.5c-1,-1.3 -0.8,-3.2 0.4,-4.3c1.3,-1.1 3.2,-0.9 4.2,0.3c1.8,2.2 4.6,3.4 7.6,3.4c3,0 5.8,-1.2 7.6,-3.4c0.6,-0.7 1.4,-1.1 2.3,-1.1v0c0.9,0 1.7,0.4 2.3,1.1c1.8,2.1 4.5,3.3 7.3,3.4c1.7,0 3,1.4 2.9,3.1c0,1.6 -1.4,2.9 -3,2.9h-0.1c-3.5,-0.1 -6.8,-1.3 -9.5,-3.3c-2.6,2.2 -6.1,3.4 -9.8,3.4z"
          fill="#67a1af"></path>
        <g fill="#e76855">
          <path
            d="M100.3,24.9c-0.5,0 -1.1,-0.1 -1.5,-0.4c-3.1,-1.9 -6.7,-2.9 -10.4,-3h-1c-1.7,0 -3,-1.4 -2.9,-3.1c0,-1.6 1.4,-2.9 3,-2.9c0,0 0,0 0.1,0h1c3.1,0.1 6.2,0.7 9.1,1.8c0.7,-3.7 2.7,-7.1 5.5,-9.6c1.2,-1.1 3.1,-1 4.2,0.3c1.1,1.2 1,3.1 -0.3,4.2c-2.4,2.1 -3.8,5.2 -3.8,8.4v1.3c0,1.1 -0.6,2.1 -1.5,2.6c-0.5,0.3 -1,0.4 -1.5,0.4z"></path>
        </g>
      </g>
    </g>
  </g>
</svg>